<?xml version="1.0" encoding="UTF-8" standalone="no" ?>
<!DOCTYPE svg PUBLIC "-//W3C//DTD SVG 1.1//EN" "http://www.w3.org/Graphics/SVG/1.1/DTD/svg11.dtd">
<svg xmlns="http://www.w3.org/2000/svg" xmlns:xlink="http://www.w3.org/1999/xlink" version="1.1" width="3051" height="2364" viewBox="0 0 3051 2364" xml:space="preserve">
<desc>Created with Fabric.js 3.6.6</desc>
<defs>
</defs>
<g transform="matrix(0 2.9 -2.9 0 857.78 269.48)"  >
<path style="stroke: rgb(0,0,0); stroke-width: 1; stroke-dasharray: none; stroke-linecap: butt; stroke-dashoffset: 0; stroke-linejoin: miter; stroke-miterlimit: 10; fill: none; fill-rule: nonzero; opacity: 1;"  transform=" translate(-281.5, -69)" d="M 281.5 50 L 281.5 88" stroke-linecap="round" />
</g>
<g transform="matrix(2.9 0 0 2.9 802.68 234.68)"  >
<path style="stroke: rgb(0,0,0); stroke-width: 1; stroke-dasharray: none; stroke-linecap: butt; stroke-dashoffset: 0; stroke-linejoin: miter; stroke-miterlimit: 10; fill: none; fill-rule: nonzero; opacity: 1;"  transform=" translate(-262.5, -57)" d="M 262.5 38 L 262.5 76" stroke-linecap="round" />
</g>
<g transform="matrix(-2.9 0 0 -2.9 1998.93 1923.93)"  >
<path style="stroke: rgb(0,0,0); stroke-width: 1; stroke-dasharray: none; stroke-linecap: butt; stroke-dashoffset: 0; stroke-linejoin: miter; stroke-miterlimit: 10; fill: none; fill-rule: nonzero; opacity: 1;"  transform=" translate(-675, -639.5)" d="M 667 595 L 667 684 M 683 595 L 683 684" stroke-linecap="round" />
</g>
<g transform="matrix(2.9 0 0 2.9 1997.45 1688.08)"  >
<path style="stroke: rgb(0,0,0); stroke-width: 1; stroke-dasharray: none; stroke-linecap: butt; stroke-dashoffset: 0; stroke-linejoin: miter; stroke-miterlimit: 10; fill: rgb(255,255,255); fill-rule: nonzero; opacity: 1;"  transform=" translate(-674.49, -558.17)" d="M 586.24 494.35 L 564.18 511.48 L 564.18 571.45 C 563.99 595.95 600.92 617.1 652.43 622 L 665.66 605.72 Z M 762.74 494.35 L 784.8 511.48 L 784.8 571.45 C 784.99 595.95 748.06 617.1 696.55 622 L 683.31 605.72 Z" stroke-linecap="round" />
</g>
<g transform="matrix(2.9 0 0 2.9 1997.45 1502.98)"  >
<path style="stroke: rgb(0,0,0); stroke-width: 1; stroke-dasharray: none; stroke-linecap: butt; stroke-dashoffset: 0; stroke-linejoin: miter; stroke-miterlimit: 10; fill: rgb(255,255,255); fill-rule: nonzero; opacity: 1;"  transform=" translate(-674.49, -494.35)" d="M 586.24 408.67 C 586.24 394.48 625.75 382.97 674.49 382.97 C 723.23 382.97 762.74 394.48 762.74 408.67 L 762.74 562.89 C 762.74 586.54 723.23 605.72 674.49 605.72 C 625.75 605.72 586.24 586.54 586.24 562.89 Z" stroke-linecap="round" />
</g>
<g transform="matrix(2.9 0 0 2.9 1997.45 1055.77)"  >
<rect style="stroke: rgb(0,0,0); stroke-width: 1; stroke-dasharray: none; stroke-linecap: butt; stroke-dashoffset: 0; stroke-linejoin: miter; stroke-miterlimit: 4; fill: rgb(255,255,255); fill-rule: nonzero; opacity: 1;"  x="-11.03" y="-17.135" rx="0" ry="0" width="22.06" height="34.27" />
</g>
<g transform="matrix(2.9 0 0 2.9 1997.46 1387.46)"  >
<path style="stroke: rgb(0,0,0); stroke-width: 1; stroke-dasharray: none; stroke-linecap: butt; stroke-dashoffset: 0; stroke-linejoin: miter; stroke-miterlimit: 10; fill: none; fill-rule: nonzero; opacity: 1;"  transform=" translate(-674.49, -454.51)" d="M 659.05 328.14 L 689.93 328.14 M 659.05 352.13 L 689.93 352.13 M 674.49 357.27 L 674.49 580.88" stroke-linecap="round" />
</g>
<g transform="matrix(2.9 0 0 2.9 1933.48 1751.44)"  >
<ellipse style="stroke: rgb(0,0,0); stroke-width: 1; stroke-dasharray: none; stroke-linecap: butt; stroke-dashoffset: 0; stroke-linejoin: miter; stroke-miterlimit: 4; fill: none; fill-rule: nonzero; opacity: 1;"  cx="0" cy="0" rx="22.06249376060697" ry="5.140401146131805" />
</g>
<g transform="matrix(2.9 0 0 2.9 2061.42 1751.44)"  >
<ellipse style="stroke: rgb(0,0,0); stroke-width: 1; stroke-dasharray: none; stroke-linecap: butt; stroke-dashoffset: 0; stroke-linejoin: miter; stroke-miterlimit: 4; fill: none; fill-rule: nonzero; opacity: 1;"  cx="0" cy="0" rx="22.06249376060697" ry="5.140401146131805" />
</g>
<g transform="matrix(0 2.9 -2.9 0 1315.98 1355.53)"  >
<path style="stroke: rgb(0,0,0); stroke-width: 1; stroke-dasharray: none; stroke-linecap: butt; stroke-dashoffset: 0; stroke-linejoin: miter; stroke-miterlimit: 10; fill: none; fill-rule: nonzero; opacity: 1;"  transform=" translate(-439.5, -443.5)" d="M 434.3 399 L 434.3 488 M 444.7 399 L 444.7 488" stroke-linecap="round" />
</g>
<g transform="matrix(-2.9 0 0 -2.9 1840.88 787.13)"  >
<path style="stroke: rgb(0,0,0); stroke-width: 1; stroke-dasharray: none; stroke-linecap: butt; stroke-dashoffset: 0; stroke-linejoin: miter; stroke-miterlimit: 10; fill: none; fill-rule: nonzero; opacity: 1;"  transform=" translate(-620.5, -247.5)" d="M 615.3 203 L 615.3 292 M 625.7 203 L 625.7 292" stroke-linecap="round" />
</g>
<g transform="matrix(2.9 0 0 2.9 973.78 910.38)"  >
<path style="stroke: rgb(0,0,0); stroke-width: 1; stroke-dasharray: none; stroke-linecap: butt; stroke-dashoffset: 0; stroke-linejoin: miter; stroke-miterlimit: 10; fill: rgb(255,255,255); fill-rule: nonzero; opacity: 1;"  transform=" translate(-321.5, -290)" d="M 218 120 C 218 111.72 264.34 105 321.5 105 C 378.66 105 425 111.72 425 120 L 425 460 C 425 468.28 378.66 475 321.5 475 C 264.34 475 218 468.28 218 460 Z" stroke-linecap="round" />
</g>
<g transform="matrix(0 2.9 -2.9 0 622.91 479.71)"  >
<path style="stroke: rgb(0,0,0); stroke-width: 1; stroke-dasharray: none; stroke-linecap: butt; stroke-dashoffset: 0; stroke-linejoin: miter; stroke-miterlimit: 10; fill: none; fill-rule: nonzero; opacity: 1;"  transform=" translate(-200.5, -141.5)" d="M 195.3 108.5 L 195.3 174.5 M 205.71 108.5 L 205.71 174.5" stroke-linecap="round" />
</g>
<g transform="matrix(2.9 0 0 2.9 453.95 393.1)"  >
<ellipse style="stroke: rgb(0,0,0); stroke-width: 1; stroke-dasharray: none; stroke-linecap: butt; stroke-dashoffset: 0; stroke-linejoin: miter; stroke-miterlimit: 4; fill: rgb(255,255,255); fill-rule: nonzero; opacity: 1;"  cx="0" cy="0" rx="9.8875" ry="9.625" />
</g>
<g transform="matrix(2.9 0 0 2.9 453.95 448.92)"  >
<path style="stroke: rgb(0,0,0); stroke-width: 1; stroke-dasharray: none; stroke-linecap: butt; stroke-dashoffset: 0; stroke-linejoin: round; stroke-miterlimit: 10; fill: none; fill-rule: nonzero; opacity: 1;"  transform=" translate(-142.25, -130.88)" d="M 142.25 121.25 L 142.25 140.5" stroke-linecap="round" />
</g>
<g transform="matrix(2.9 0 0 2.9 452.5 393.03)" style=""  >
		<text xml:space="preserve" font-family="Helvetica" font-size="7.91" font-style="normal" font-weight="bold" style="stroke: none; stroke-width: 1; stroke-dasharray: none; stroke-linecap: butt; stroke-dashoffset: 0; stroke-linejoin: miter; stroke-miterlimit: 4; fill: rgb(0,0,0); fill-rule: nonzero; opacity: 1; white-space: pre;" ><tspan x="-3.29" y="2.48" >M</tspan></text>
</g>
<g transform="matrix(2.9 0 0 2.9 453.95 476.83)"  >
<path style="stroke: rgb(0,0,0); stroke-width: 1; stroke-dasharray: none; stroke-linecap: butt; stroke-dashoffset: 0; stroke-linejoin: round; stroke-miterlimit: 10; fill: rgb(255,255,255); fill-rule: nonzero; opacity: 1;"  transform=" translate(-142.25, -140.5)" d="M 114 124 L 142.25 140.5 L 114 157 Z M 170.5 124 L 142.25 140.5 L 170.5 157 Z" stroke-linecap="round" />
</g>
<g transform="matrix(0 2.9 -2.9 0 274.91 479.71)"  >
<path style="stroke: rgb(0,0,0); stroke-width: 1; stroke-dasharray: none; stroke-linecap: butt; stroke-dashoffset: 0; stroke-linejoin: miter; stroke-miterlimit: 10; fill: none; fill-rule: nonzero; opacity: 1;"  transform=" translate(-80.5, -141.5)" d="M 75.3 108.5 L 75.3 174.5 M 85.71 108.5 L 85.71 174.5" stroke-linecap="round" />
</g>
<g transform="matrix(2.9 0 0 2.9 1521.15 1274.7)"  >
<ellipse style="stroke: rgb(0,0,0); stroke-width: 1; stroke-dasharray: none; stroke-linecap: butt; stroke-dashoffset: 0; stroke-linejoin: miter; stroke-miterlimit: 4; fill: rgb(255,255,255); fill-rule: nonzero; opacity: 1;"  cx="0" cy="0" rx="9.8875" ry="9.625" />
</g>
<g transform="matrix(2.9 0 0 2.9 1521.15 1330.51)"  >
<path style="stroke: rgb(0,0,0); stroke-width: 1; stroke-dasharray: none; stroke-linecap: butt; stroke-dashoffset: 0; stroke-linejoin: round; stroke-miterlimit: 10; fill: none; fill-rule: nonzero; opacity: 1;"  transform=" translate(-510.25, -434.88)" d="M 510.25 425.25 L 510.25 444.5" stroke-linecap="round" />
</g>
<g transform="matrix(2.9 0 0 2.9 1519.7 1274.63)" style=""  >
		<text xml:space="preserve" font-family="Helvetica" font-size="7.91" font-style="normal" font-weight="bold" style="stroke: none; stroke-width: 1; stroke-dasharray: none; stroke-linecap: butt; stroke-dashoffset: 0; stroke-linejoin: miter; stroke-miterlimit: 4; fill: rgb(0,0,0); fill-rule: nonzero; opacity: 1; white-space: pre;" ><tspan x="-3.29" y="2.48" >M</tspan></text>
</g>
<g transform="matrix(2.9 0 0 2.9 1521.15 1358.43)"  >
<path style="stroke: rgb(0,0,0); stroke-width: 1; stroke-dasharray: none; stroke-linecap: butt; stroke-dashoffset: 0; stroke-linejoin: round; stroke-miterlimit: 10; fill: rgb(255,255,255); fill-rule: nonzero; opacity: 1;"  transform=" translate(-510.25, -444.5)" d="M 482 428 L 510.25 444.5 L 482 461 Z M 538.5 428 L 510.25 444.5 L 538.5 461 Z" stroke-linecap="round" />
</g>
<g transform="matrix(0 2.9 -2.9 0 1691.53 1357.71)"  >
<path style="stroke: rgb(0,0,0); stroke-width: 1; stroke-dasharray: none; stroke-linecap: butt; stroke-dashoffset: 0; stroke-linejoin: miter; stroke-miterlimit: 10; fill: none; fill-rule: nonzero; opacity: 1;"  transform=" translate(-569, -444.25)" d="M 563.2 414.25 L 563.2 474.25 M 574.8 414.25 L 574.8 474.25" stroke-linecap="round" />
</g>
<g transform="matrix(0 -2.9 2.9 0 1759.3 993.03)"  >
<ellipse style="stroke: rgb(0,0,0); stroke-width: 1; stroke-dasharray: none; stroke-linecap: butt; stroke-dashoffset: 0; stroke-linejoin: miter; stroke-miterlimit: 4; fill: rgb(255,255,255); fill-rule: nonzero; opacity: 1;"  cx="0" cy="0" rx="9.8875" ry="9.625" />
</g>
<g transform="matrix(0 -2.9 2.9 0 1815.14 993.03)"  >
<path style="stroke: rgb(0,0,0); stroke-width: 1; stroke-dasharray: none; stroke-linecap: butt; stroke-dashoffset: 0; stroke-linejoin: round; stroke-miterlimit: 10; fill: none; fill-rule: nonzero; opacity: 1;"  transform=" translate(-610.25, -319.88)" d="M 610.25 310.25 L 610.25 329.5" stroke-linecap="round" />
</g>
<g transform="matrix(2.9 0.03 -0.03 2.9 1759.26 994.48)" style=""  >
		<text xml:space="preserve" font-family="Helvetica" font-size="7.91" font-style="normal" font-weight="bold" style="stroke: none; stroke-width: 1; stroke-dasharray: none; stroke-linecap: butt; stroke-dashoffset: 0; stroke-linejoin: miter; stroke-miterlimit: 4; fill: rgb(0,0,0); fill-rule: nonzero; opacity: 1; white-space: pre;" ><tspan x="-3.29" y="2.48" >M</tspan></text>
</g>
<g transform="matrix(0 -2.9 2.9 0 1843.05 993.03)"  >
<path style="stroke: rgb(0,0,0); stroke-width: 1; stroke-dasharray: none; stroke-linecap: butt; stroke-dashoffset: 0; stroke-linejoin: round; stroke-miterlimit: 10; fill: rgb(255,255,255); fill-rule: nonzero; opacity: 1;"  transform=" translate(-610.25, -329.5)" d="M 582 313 L 610.25 329.5 L 582 346 Z M 638.5 313 L 610.25 329.5 L 638.5 346 Z" stroke-linecap="round" />
</g>
<g transform="matrix(2.9 0 0 2.9 1839.43 463.78)"  >
<path style="stroke: rgb(0,0,0); stroke-width: 1; stroke-dasharray: none; stroke-linecap: butt; stroke-dashoffset: 0; stroke-linejoin: miter; stroke-miterlimit: 10; fill: rgb(255,255,255); fill-rule: nonzero; opacity: 1;"  transform=" translate(-620, -136)" d="M 538 26 L 538 180 L 620 246 L 702 180 L 702 26 M 538 180 L 702 180" stroke-linecap="round" />
</g>
<g transform="matrix(-2.9 0 0 -2.9 1839.43 1175.73)"  >
<path style="stroke: rgb(0,0,0); stroke-width: 1; stroke-dasharray: none; stroke-linecap: butt; stroke-dashoffset: 0; stroke-linejoin: miter; stroke-miterlimit: 10; fill: none; fill-rule: nonzero; opacity: 1;"  transform=" translate(-620, -381.5)" d="M 615.2 347 L 615.2 416 M 624.8 347 L 624.8 416" stroke-linecap="round" />
</g>
<g transform="matrix(0 -2.9 2.9 0 1915.9 2118.23)"  >
<ellipse style="stroke: rgb(0,0,0); stroke-width: 1; stroke-dasharray: none; stroke-linecap: butt; stroke-dashoffset: 0; stroke-linejoin: miter; stroke-miterlimit: 4; fill: rgb(255,255,255); fill-rule: nonzero; opacity: 1;"  cx="0" cy="0" rx="9.8875" ry="9.625" />
</g>
<g transform="matrix(0 -2.9 2.9 0 1971.74 2118.23)"  >
<path style="stroke: rgb(0,0,0); stroke-width: 1; stroke-dasharray: none; stroke-linecap: butt; stroke-dashoffset: 0; stroke-linejoin: round; stroke-miterlimit: 10; fill: none; fill-rule: nonzero; opacity: 1;"  transform=" translate(-664.25, -707.88)" d="M 664.25 698.25 L 664.25 717.5" stroke-linecap="round" />
</g>
<g transform="matrix(2.9 -0.02 0.02 2.9 1915.85 2119.68)" style=""  >
		<text xml:space="preserve" font-family="Helvetica" font-size="7.91" font-style="normal" font-weight="bold" style="stroke: none; stroke-width: 1; stroke-dasharray: none; stroke-linecap: butt; stroke-dashoffset: 0; stroke-linejoin: miter; stroke-miterlimit: 4; fill: rgb(0,0,0); fill-rule: nonzero; opacity: 1; white-space: pre;" ><tspan x="-3.29" y="2.48" >M</tspan></text>
</g>
<g transform="matrix(0 -2.9 2.9 0 1999.65 2118.24)"  >
<path style="stroke: rgb(0,0,0); stroke-width: 1; stroke-dasharray: none; stroke-linecap: butt; stroke-dashoffset: 0; stroke-linejoin: round; stroke-miterlimit: 10; fill: rgb(255,255,255); fill-rule: nonzero; opacity: 1;"  transform=" translate(-664.25, -717.5)" d="M 636 701 L 664.25 717.5 L 636 734 Z M 692.5 701 L 664.25 717.5 L 692.5 734 Z" stroke-linecap="round" />
</g>
<g transform="matrix(0 -2.9 2.9 0 2442.62 2321.23)"  >
<path style="stroke: rgb(0,0,0); stroke-width: 1; stroke-dasharray: none; stroke-linecap: butt; stroke-dashoffset: 0; stroke-linejoin: miter; stroke-miterlimit: 10; fill: none; fill-rule: nonzero; opacity: 1;"  transform=" translate(-828, -776.5)" d="M 820 630.74 L 820 922.25 M 836 630.74 L 836 922.25" stroke-linecap="round" />
</g>
<g transform="matrix(2.9 0 0 2.9 2020.68 2250.18)"  >
<path style="stroke: rgb(0,0,0); stroke-width: 1; stroke-dasharray: none; stroke-linecap: butt; stroke-dashoffset: 0; stroke-linejoin: miter; stroke-miterlimit: 10; fill: none; fill-rule: nonzero; opacity: 1;"  transform=" translate(-682.5, -752)" d="M 682.5 735 L 682.5 769" stroke-linecap="round" />
</g>
<g transform="matrix(2.9 0 0 2.9 1980.08 2273.38)"  >
<path style="stroke: rgb(0,0,0); stroke-width: 1; stroke-dasharray: none; stroke-linecap: butt; stroke-dashoffset: 0; stroke-linejoin: miter; stroke-miterlimit: 10; fill: none; fill-rule: nonzero; opacity: 1;"  transform=" translate(-668.5, -760)" d="M 668.5 735 L 668.5 785" stroke-linecap="round" />
</g>
<g transform="matrix(0 2.9 -2.9 0 2014.74 2344.25)"  >
<path style="stroke: rgb(0,0,0); stroke-width: 1; stroke-dasharray: none; stroke-linecap: butt; stroke-dashoffset: 0; stroke-linejoin: miter; stroke-miterlimit: 10; fill: none; fill-rule: nonzero; opacity: 1;"  transform=" translate(-680.1, -784.55)" d="M 680.1 772.71 L 680.1 796.38" stroke-linecap="round" />
</g>
<g transform="matrix(2.9 0 0 2.9 1111.53 205.28)"  >
<ellipse style="stroke: rgb(0,0,0); stroke-width: 1; stroke-dasharray: none; stroke-linecap: butt; stroke-dashoffset: 0; stroke-linejoin: miter; stroke-miterlimit: 4; fill: rgb(255,255,255); fill-rule: nonzero; opacity: 1;"  cx="0" cy="0" rx="14" ry="13.857142857142858" />
</g>
<g transform="matrix(2.9 0 0 2.9 1111.53 345.91)"  >
<path style="stroke: rgb(0,0,0); stroke-width: 1; stroke-dasharray: none; stroke-linecap: butt; stroke-dashoffset: 0; stroke-linejoin: miter; stroke-miterlimit: 10; fill: none; fill-rule: nonzero; opacity: 1;"  transform=" translate(-369, -95.35)" d="M 369 60.71 L 369 130" stroke-linecap="round" />
</g>
<g transform="matrix(2.9 0 0 2.9 1110.08 194.08)"  >
<rect style="stroke: none; stroke-width: 1; stroke-dasharray: none; stroke-linecap: butt; stroke-dashoffset: 0; stroke-linejoin: miter; stroke-miterlimit: 4; fill: none; fill-rule: nonzero; opacity: 1;"  x="-5.5" y="-16" rx="0" ry="0" width="11" height="32" />
</g>
<g transform="matrix(2.9 0 0 2.9 1110.63 209.81)" style=""  >
		<text xml:space="preserve" font-family="'Open Sans', 'VP Default'" font-size="20" font-style="normal" font-weight="400" style="stroke: none; stroke-width: 1; stroke-dasharray: none; stroke-linecap: butt; stroke-dashoffset: 0; stroke-linejoin: miter; stroke-miterlimit: 4; fill: rgb(0,0,0); fill-rule: nonzero; opacity: 1; white-space: pre;" ><tspan x="-5.51" y="6.28" >T</tspan></text>
</g>
<g transform="matrix(0 2.9 -2.9 0 1464.31 488.43)"  >
<ellipse style="stroke: rgb(0,0,0); stroke-width: 1; stroke-dasharray: none; stroke-linecap: butt; stroke-dashoffset: 0; stroke-linejoin: miter; stroke-miterlimit: 4; fill: rgb(255,255,255); fill-rule: nonzero; opacity: 1;"  cx="0" cy="0" rx="14" ry="13.857142857142858" />
</g>
<g transform="matrix(0 2.9 -2.9 0 1323.65 488.43)"  >
<path style="stroke: rgb(0,0,0); stroke-width: 1; stroke-dasharray: none; stroke-linecap: butt; stroke-dashoffset: 0; stroke-linejoin: miter; stroke-miterlimit: 10; fill: none; fill-rule: nonzero; opacity: 1;"  transform=" translate(-456, -158.35)" d="M 456 123.71 L 456 193" stroke-linecap="round" />
</g>
<g transform="matrix(0 -2.9 2.9 0 480.38 1364.23)"  >
<ellipse style="stroke: rgb(0,0,0); stroke-width: 1; stroke-dasharray: none; stroke-linecap: butt; stroke-dashoffset: 0; stroke-linejoin: miter; stroke-miterlimit: 4; fill: rgb(255,255,255); fill-rule: nonzero; opacity: 1;"  cx="0" cy="0" rx="14" ry="13.857142857142858" />
</g>
<g transform="matrix(0 -2.9 2.9 0 621.03 1364.23)"  >
<path style="stroke: rgb(0,0,0); stroke-width: 1; stroke-dasharray: none; stroke-linecap: butt; stroke-dashoffset: 0; stroke-linejoin: miter; stroke-miterlimit: 10; fill: none; fill-rule: nonzero; opacity: 1;"  transform=" translate(-186, -460.36)" d="M 186 425.72 L 186 495" stroke-linecap="round" />
</g>
<g transform="matrix(0 2.9 -2.9 0 2154.48 685.63)"  >
<ellipse style="stroke: rgb(0,0,0); stroke-width: 1; stroke-dasharray: none; stroke-linecap: butt; stroke-dashoffset: 0; stroke-linejoin: miter; stroke-miterlimit: 4; fill: rgb(255,255,255); fill-rule: nonzero; opacity: 1;"  cx="0" cy="0" rx="14" ry="13.857142857142858" />
</g>
<g transform="matrix(0 2.9 -2.9 0 2013.83 685.63)"  >
<path style="stroke: rgb(0,0,0); stroke-width: 1; stroke-dasharray: none; stroke-linecap: butt; stroke-dashoffset: 0; stroke-linejoin: miter; stroke-miterlimit: 10; fill: none; fill-rule: nonzero; opacity: 1;"  transform=" translate(-694, -226.36)" d="M 694 191.72 L 694 261" stroke-linecap="round" />
</g>
<g transform="matrix(0 2.9 -2.9 0 2253.08 221.63)"  >
<ellipse style="stroke: rgb(0,0,0); stroke-width: 1; stroke-dasharray: none; stroke-linecap: butt; stroke-dashoffset: 0; stroke-linejoin: miter; stroke-miterlimit: 4; fill: rgb(255,255,255); fill-rule: nonzero; opacity: 1;"  cx="0" cy="0" rx="14" ry="13.857142857142858" />
</g>
<g transform="matrix(0 2.9 -2.9 0 2112.43 221.63)"  >
<path style="stroke: rgb(0,0,0); stroke-width: 1; stroke-dasharray: none; stroke-linecap: butt; stroke-dashoffset: 0; stroke-linejoin: miter; stroke-miterlimit: 10; fill: none; fill-rule: nonzero; opacity: 1;"  transform=" translate(-728, -66.36)" d="M 728 31.72 L 728 101" stroke-linecap="round" />
</g>
<g transform="matrix(2.9 0 0 2.9 1465.33 475.38)"  >
<rect style="stroke: none; stroke-width: 1; stroke-dasharray: none; stroke-linecap: butt; stroke-dashoffset: 0; stroke-linejoin: miter; stroke-miterlimit: 4; fill: none; fill-rule: nonzero; opacity: 1;"  x="-7" y="-16" rx="0" ry="0" width="14" height="32" />
</g>
<g transform="matrix(2.9 0 0 2.9 2154.53 686.64)" style=""  >
		<text xml:space="preserve" font-family="'Open Sans', 'VP Default'" font-size="20" font-style="normal" font-weight="400" style="stroke: none; stroke-width: 1; stroke-dasharray: none; stroke-linecap: butt; stroke-dashoffset: 0; stroke-linejoin: miter; stroke-miterlimit: 4; fill: rgb(0,0,0); fill-rule: nonzero; opacity: 1; white-space: pre;" ><tspan x="-5.22" y="6.28" >L</tspan></text>
</g>
<g transform="matrix(2.9 0 0 2.9 479.33 1351.18)"  >
<rect style="stroke: none; stroke-width: 1; stroke-dasharray: none; stroke-linecap: butt; stroke-dashoffset: 0; stroke-linejoin: miter; stroke-miterlimit: 4; fill: none; fill-rule: nonzero; opacity: 1;"  x="-7" y="-16" rx="0" ry="0" width="14" height="32" />
</g>
<g transform="matrix(2.9 0 0 2.9 2252.4 224.26)" style=""  >
		<text xml:space="preserve" font-family="'Open Sans', 'VP Default'" font-size="20" font-style="normal" font-weight="400" style="stroke: none; stroke-width: 1; stroke-dasharray: none; stroke-linecap: butt; stroke-dashoffset: 0; stroke-linejoin: miter; stroke-miterlimit: 4; fill: rgb(0,0,0); fill-rule: nonzero; opacity: 1; white-space: pre;" ><tspan x="-5.22" y="6.28" >L</tspan></text>
</g>
<g transform="matrix(2.9 0 0 2.9 1464.15 489.53)" style=""  >
		<text xml:space="preserve" font-family="'Open Sans', 'VP Default'" font-size="20" font-style="normal" font-weight="400" style="stroke: none; stroke-width: 1; stroke-dasharray: none; stroke-linecap: butt; stroke-dashoffset: 0; stroke-linejoin: miter; stroke-miterlimit: 4; fill: rgb(0,0,0); fill-rule: nonzero; opacity: 1; white-space: pre;" ><tspan x="-5.22" y="6.28" >L</tspan></text>
</g>
<g transform="matrix(2.9 0 0 2.9 479.88 1364.61)" style=""  >
		<text xml:space="preserve" font-family="'Open Sans', 'VP Default'" font-size="20" font-style="normal" font-weight="400" style="stroke: none; stroke-width: 1; stroke-dasharray: none; stroke-linecap: butt; stroke-dashoffset: 0; stroke-linejoin: miter; stroke-miterlimit: 4; fill: rgb(0,0,0); fill-rule: nonzero; opacity: 1; white-space: pre;" ><tspan x="-5.22" y="6.28" >L</tspan></text>
</g>
<g transform="matrix(0 2.9 -2.9 0 805.58 1523.73)"  >
<path style="stroke: rgb(0,0,0); stroke-width: 1; stroke-dasharray: none; stroke-linecap: butt; stroke-dashoffset: 0; stroke-linejoin: miter; stroke-miterlimit: 10; fill: none; fill-rule: nonzero; opacity: 1;"  transform=" translate(-263.5, -501.5)" d="M 263.5 485.5 L 263.5 517.5" stroke-linecap="round" />
</g>
<g transform="matrix(-2.9 0 0 -2.9 759.18 1652.78)"  >
<ellipse style="stroke: rgb(0,0,0); stroke-width: 1; stroke-dasharray: none; stroke-linecap: butt; stroke-dashoffset: 0; stroke-linejoin: miter; stroke-miterlimit: 4; fill: rgb(255,255,255); fill-rule: nonzero; opacity: 1;"  cx="0" cy="0" rx="3.5" ry="2.999999999999999" />
</g>
<g transform="matrix(-2.9 0 0 -2.9 759.18 1622.33)"  >
<path style="stroke: rgb(0,0,0); stroke-width: 1; stroke-dasharray: none; stroke-linecap: butt; stroke-dashoffset: 0; stroke-linejoin: miter; stroke-miterlimit: 10; fill: none; fill-rule: nonzero; opacity: 1;"  transform=" translate(-247.5, -541.5)" d="M 247.5 534 L 247.5 549" stroke-linecap="round" />
</g>
<g transform="matrix(2.9 0 0 2.9 759.18 1568.68)"  >
<path style="stroke: rgb(0,0,0); stroke-width: 1; stroke-dasharray: none; stroke-linecap: butt; stroke-dashoffset: 0; stroke-linejoin: miter; stroke-miterlimit: 10; fill: none; fill-rule: nonzero; opacity: 1;"  transform=" translate(-247.5, -517)" d="M 247.5 501 L 247.5 533" stroke-linecap="round" />
</g>
<g transform="matrix(-2.9 0 0 -2.9 850.53 1568.68)"  >
<path style="stroke: rgb(0,0,0); stroke-width: 1; stroke-dasharray: none; stroke-linecap: butt; stroke-dashoffset: 0; stroke-linejoin: miter; stroke-miterlimit: 10; fill: none; fill-rule: nonzero; opacity: 1;"  transform=" translate(-279, -517)" d="M 279 501 L 279 533" stroke-linecap="round" />
</g>
<g transform="matrix(0 -2.9 2.9 0 896.93 1613.63)"  >
<path style="stroke: rgb(0,0,0); stroke-width: 1; stroke-dasharray: none; stroke-linecap: butt; stroke-dashoffset: 0; stroke-linejoin: miter; stroke-miterlimit: 10; fill: none; fill-rule: nonzero; opacity: 1;"  transform=" translate(-295, -532.5)" d="M 295 516.5 L 295 548.5" stroke-linecap="round" />
</g>
<g transform="matrix(-2.9 0 0 -2.9 1213.03 1652.78)"  >
<ellipse style="stroke: rgb(0,0,0); stroke-width: 1; stroke-dasharray: none; stroke-linecap: butt; stroke-dashoffset: 0; stroke-linejoin: miter; stroke-miterlimit: 4; fill: rgb(255,255,255); fill-rule: nonzero; opacity: 1;"  cx="0" cy="0" rx="3" ry="2.999999999999999" />
</g>
<g transform="matrix(-2.9 0 0 -2.9 1213.03 1622.33)"  >
<path style="stroke: rgb(0,0,0); stroke-width: 1; stroke-dasharray: none; stroke-linecap: butt; stroke-dashoffset: 0; stroke-linejoin: miter; stroke-miterlimit: 10; fill: none; fill-rule: nonzero; opacity: 1;"  transform=" translate(-404, -541.5)" d="M 404 534 L 404 549" stroke-linecap="round" />
</g>
<g transform="matrix(2.9 0 0 2.9 1213.03 1568.68)"  >
<path style="stroke: rgb(0,0,0); stroke-width: 1; stroke-dasharray: none; stroke-linecap: butt; stroke-dashoffset: 0; stroke-linejoin: miter; stroke-miterlimit: 10; fill: none; fill-rule: nonzero; opacity: 1;"  transform=" translate(-404, -517)" d="M 404 501 L 404 533" stroke-linecap="round" />
</g>
<g transform="matrix(-2.9 0 0 -2.9 943.33 1568.68)"  >
<path style="stroke: rgb(0,0,0); stroke-width: 1; stroke-dasharray: none; stroke-linecap: butt; stroke-dashoffset: 0; stroke-linejoin: miter; stroke-miterlimit: 10; fill: none; fill-rule: nonzero; opacity: 1;"  transform=" translate(-311, -517)" d="M 311 501 L 311 533" stroke-linecap="round" />
</g>
<g transform="matrix(0 -2.9 2.9 0 988.28 1522.28)"  >
<path style="stroke: rgb(0,0,0); stroke-width: 1; stroke-dasharray: none; stroke-linecap: butt; stroke-dashoffset: 0; stroke-linejoin: miter; stroke-miterlimit: 10; fill: none; fill-rule: nonzero; opacity: 1;"  transform=" translate(-326.5, -501)" d="M 326.5 485 L 326.5 517" stroke-linecap="round" />
</g>
<g transform="matrix(-2.9 0 0 -2.9 1033.23 1568.68)"  >
<path style="stroke: rgb(0,0,0); stroke-width: 1; stroke-dasharray: none; stroke-linecap: butt; stroke-dashoffset: 0; stroke-linejoin: miter; stroke-miterlimit: 10; fill: none; fill-rule: nonzero; opacity: 1;"  transform=" translate(-342, -517)" d="M 342 501 L 342 533" stroke-linecap="round" />
</g>
<g transform="matrix(0 -2.9 2.9 0 1078.18 1615.08)"  >
<path style="stroke: rgb(0,0,0); stroke-width: 1; stroke-dasharray: none; stroke-linecap: butt; stroke-dashoffset: 0; stroke-linejoin: miter; stroke-miterlimit: 10; fill: none; fill-rule: nonzero; opacity: 1;"  transform=" translate(-357.5, -533)" d="M 357.5 517 L 357.5 549" stroke-linecap="round" />
</g>
<g transform="matrix(-2.9 0 0 -2.9 1123.13 1568.68)"  >
<path style="stroke: rgb(0,0,0); stroke-width: 1; stroke-dasharray: none; stroke-linecap: butt; stroke-dashoffset: 0; stroke-linejoin: miter; stroke-miterlimit: 10; fill: none; fill-rule: nonzero; opacity: 1;"  transform=" translate(-373, -517)" d="M 373 501 L 373 533" stroke-linecap="round" />
</g>
<g transform="matrix(0 -2.9 2.9 0 1168.08 1522.28)"  >
<path style="stroke: rgb(0,0,0); stroke-width: 1; stroke-dasharray: none; stroke-linecap: butt; stroke-dashoffset: 0; stroke-linejoin: miter; stroke-miterlimit: 10; fill: none; fill-rule: nonzero; opacity: 1;"  transform=" translate(-388.5, -501)" d="M 388.5 485 L 388.5 517" stroke-linecap="round" />
</g>
<g transform="matrix(2.9 0 0 2.9 991.84 1732.05)" style=""  >
		<text xml:space="preserve" font-family="'Open Sans', 'VP Default'" font-size="20" font-style="normal" font-weight="400" style="stroke: none; stroke-width: 1; stroke-dasharray: none; stroke-linecap: butt; stroke-dashoffset: 0; stroke-linejoin: miter; stroke-miterlimit: 4; fill: rgb(0,0,0); fill-rule: nonzero; opacity: 1; white-space: pre;" ><tspan x="-31.81" y="6.28" >Heater</tspan></text>
</g>
<g transform="matrix(2.9 0 0 2.9 174.83 370.98)"  >
<rect style="stroke: none; stroke-width: 1; stroke-dasharray: none; stroke-linecap: butt; stroke-dashoffset: 0; stroke-linejoin: miter; stroke-miterlimit: 4; fill: none; fill-rule: nonzero; opacity: 1;"  x="-31" y="-16" rx="0" ry="0" width="62" height="32" />
</g>
<g transform="matrix(2.9 0 0 2.9 179.81 385.42)" style=""  >
		<text xml:space="preserve" font-family="'Open Sans', 'VP Default'" font-size="20" font-style="normal" font-weight="400" style="stroke: none; stroke-width: 1; stroke-dasharray: none; stroke-linecap: butt; stroke-dashoffset: 0; stroke-linejoin: miter; stroke-miterlimit: 4; fill: rgb(0,0,0); fill-rule: nonzero; opacity: 1; white-space: pre;" ><tspan x="-28.92" y="6.28" >Intake</tspan></text>
</g>
<g transform="matrix(2.9 0 0 2.9 2860.23 2192.18)"  >
<rect style="stroke: none; stroke-width: 1; stroke-dasharray: none; stroke-linecap: butt; stroke-dashoffset: 0; stroke-linejoin: miter; stroke-miterlimit: 4; fill: none; fill-rule: nonzero; opacity: 1;"  x="-43" y="-16" rx="0" ry="0" width="86" height="32" />
</g>
<g transform="matrix(2.9 0 0 2.9 2885.03 2203.57)" style=""  >
		<text xml:space="preserve" font-family="'Open Sans', 'VP Default'" font-size="20" font-style="normal" font-weight="400" style="stroke: none; stroke-width: 1; stroke-dasharray: none; stroke-linecap: butt; stroke-dashoffset: 0; stroke-linejoin: miter; stroke-miterlimit: 4; fill: rgb(0,0,0); fill-rule: nonzero; opacity: 1; white-space: pre;" ><tspan x="-33.9" y="6.28" >Outake</tspan></text>
</g>
<g transform="matrix(2.9 0 0 2.9 970.55 920.87)" style=""  >
		<text xml:space="preserve" font-family="'Open Sans', 'VP Default'" font-size="20" font-style="normal" font-weight="400" style="stroke: none; stroke-width: 1; stroke-dasharray: none; stroke-linecap: butt; stroke-dashoffset: 0; stroke-linejoin: miter; stroke-miterlimit: 4; fill: rgb(0,0,0); fill-rule: nonzero; opacity: 1; white-space: pre;" ><tspan x="-27.23" y="6.28" >Boiler</tspan></text>
</g>
<g transform="matrix(2.9 0 0 2.9 1867.9 1496.29)" style=""  >
		<text xml:space="preserve" font-family="'Open Sans', 'VP Default'" font-size="20" font-style="normal" font-weight="400" style="stroke: none; stroke-width: 1; stroke-dasharray: none; stroke-linecap: butt; stroke-dashoffset: 0; stroke-linejoin: miter; stroke-miterlimit: 4; fill: rgb(0,0,0); fill-rule: nonzero; opacity: 1; white-space: pre;" ><tspan x="-26.46" y="6.28" >Mixer</tspan></text>
</g>
<g transform="matrix(2.9 0 0 2.9 1832.95 373.43)" style=""  >
		<text xml:space="preserve" font-family="'Open Sans', 'VP Default'" font-size="20" font-style="normal" font-weight="400" style="stroke: none; stroke-width: 1; stroke-dasharray: none; stroke-linecap: butt; stroke-dashoffset: 0; stroke-linejoin: miter; stroke-miterlimit: 4; fill: rgb(0,0,0); fill-rule: nonzero; opacity: 1; white-space: pre;" ><tspan x="-53.01" y="6.28" >Herbs Tank</tspan></text>
</g>
<g transform="matrix(2.9 0 0 2.9 451.44 597.2)" style=""  >
		<text xml:space="preserve" font-family="'Open Sans', 'VP Default'" font-size="20" font-style="normal" font-weight="400" style="stroke: none; stroke-width: 1; stroke-dasharray: none; stroke-linecap: butt; stroke-dashoffset: 0; stroke-linejoin: miter; stroke-miterlimit: 4; fill: rgb(0,0,0); fill-rule: nonzero; opacity: 1; white-space: pre;" ><tspan x="-32.97" y="6.28" >Valve 1</tspan></text>
</g>
<g transform="matrix(2.9 0 0 2.9 1526.95 1472.31)" style=""  >
		<text xml:space="preserve" font-family="'Open Sans', 'VP Default'" font-size="20" font-style="normal" font-weight="400" style="stroke: none; stroke-width: 1; stroke-dasharray: none; stroke-linecap: butt; stroke-dashoffset: 0; stroke-linejoin: miter; stroke-miterlimit: 4; fill: rgb(0,0,0); fill-rule: nonzero; opacity: 1; white-space: pre;" ><tspan x="-32.97" y="6.28" >Valve 2</tspan></text>
</g>
<g transform="matrix(2.9 0 0 2.9 1590.92 988.81)" style=""  >
		<text xml:space="preserve" font-family="'Open Sans', 'VP Default'" font-size="20" font-style="normal" font-weight="400" style="stroke: none; stroke-width: 1; stroke-dasharray: none; stroke-linecap: butt; stroke-dashoffset: 0; stroke-linejoin: miter; stroke-miterlimit: 4; fill: rgb(0,0,0); fill-rule: nonzero; opacity: 1; white-space: pre;" ><tspan x="-32.97" y="6.28" >Valve 3</tspan></text>
</g>
<g transform="matrix(2.9 0 0 2.9 2194.64 2123.65)" style=""  >
		<text xml:space="preserve" font-family="'Open Sans', 'VP Default'" font-size="20" font-style="normal" font-weight="400" style="stroke: none; stroke-width: 1; stroke-dasharray: none; stroke-linecap: butt; stroke-dashoffset: 0; stroke-linejoin: miter; stroke-miterlimit: 4; fill: rgb(0,0,0); fill-rule: nonzero; opacity: 1; white-space: pre;" ><tspan x="-32.97" y="6.28" >Valve 4</tspan></text>
</g>
<g transform="matrix(2.9 0 0 2.9 2166.2 1052.74)" style=""  >
		<text xml:space="preserve" font-family="'Open Sans', 'VP Default'" font-size="20" font-style="normal" font-weight="400" style="stroke: none; stroke-width: 1; stroke-dasharray: none; stroke-linecap: butt; stroke-dashoffset: 0; stroke-linejoin: miter; stroke-miterlimit: 4; fill: rgb(0,0,0); fill-rule: nonzero; opacity: 1; white-space: pre;" ><tspan x="-28.68" y="6.28" >Motor</tspan></text>
</g>
<g transform="matrix(2.9 0 0 2.9 802.68 376.78)"  >
<path style="stroke: rgb(0,0,0); stroke-width: 1; stroke-dasharray: none; stroke-linecap: butt; stroke-dashoffset: 0; stroke-linejoin: miter; stroke-miterlimit: 10; fill: none; fill-rule: nonzero; opacity: 1;"  transform=" translate(-262.5, -106)" d="M 262.5 90 L 262.5 122" stroke-linecap="round" />
</g>
<g transform="matrix(2.9 0 0 2.9 814.57 281.08)"  >
<path style="stroke: rgb(0,0,0); stroke-width: 1; stroke-dasharray: none; stroke-linecap: butt; stroke-dashoffset: 0; stroke-linejoin: round; stroke-miterlimit: 10; fill: rgb(255,255,255); fill-rule: nonzero; opacity: 1;"  transform=" translate(-266.6, -73)" d="M 262.5 68.75 L 283 56 L 283 81.5 Z M 262.5 68.75 L 274.8 90 L 250.2 90 Z" stroke-linecap="round" />
</g>
<g transform="matrix(2.9 0 0 2.9 917.23 269.48)"  >
<path style="stroke: rgb(0,0,0); stroke-width: 1; stroke-dasharray: none; stroke-linecap: butt; stroke-dashoffset: 0; stroke-linejoin: miter; stroke-miterlimit: 10; fill: rgb(51,51,51); fill-rule: nonzero; opacity: 1;"  transform=" translate(-302, -69)" d="M 301 67 L 303 69 L 301 71 Z" stroke-linecap="round" />
</g>
<g transform="matrix(1.27 2.61 -2.61 1.27 802.7 233.1)"  >
<path style="stroke: rgb(0,0,0); stroke-width: 1; stroke-dasharray: none; stroke-linecap: butt; stroke-dashoffset: 0; stroke-linejoin: miter; stroke-miterlimit: 10; fill: none; fill-rule: nonzero; opacity: 1;"  transform=" translate(-262.5, -56.45)" d="M 262.5 50 L 262.5 62.91" stroke-linecap="round" />
</g>
<g transform="matrix(1.27 2.61 -2.61 1.27 802.67 218.59)"  >
<path style="stroke: rgb(0,0,0); stroke-width: 1; stroke-dasharray: none; stroke-linecap: butt; stroke-dashoffset: 0; stroke-linejoin: miter; stroke-miterlimit: 10; fill: none; fill-rule: nonzero; opacity: 1;"  transform=" translate(-262.5, -51.45)" d="M 262.5 45 L 262.5 57.91" stroke-linecap="round" />
</g>
<g transform="matrix(1.27 2.61 -2.61 1.27 802.7 204.1)"  >
<path style="stroke: rgb(0,0,0); stroke-width: 1; stroke-dasharray: none; stroke-linecap: butt; stroke-dashoffset: 0; stroke-linejoin: miter; stroke-miterlimit: 10; fill: none; fill-rule: nonzero; opacity: 1;"  transform=" translate(-262.5, -46.45)" d="M 262.5 40 L 262.5 52.91" stroke-linecap="round" />
</g>
<g transform="matrix(2.9 0 0 2.9 818.15 104.21)" style=""  >
		<text xml:space="preserve" font-family="'Open Sans', 'VP Default'" font-size="20" font-style="normal" font-weight="400" style="stroke: none; stroke-width: 1; stroke-dasharray: none; stroke-linecap: butt; stroke-dashoffset: 0; stroke-linejoin: miter; stroke-miterlimit: 4; fill: rgb(0,0,0); fill-rule: nonzero; opacity: 1; white-space: pre;" ><tspan x="-55.84" y="6.28" >Safety Valve</tspan></text>
</g>
<g transform="matrix(2.9 0 0 2.9 2542.31 681.12)" style=""  >
		<text xml:space="preserve" font-family="'Open Sans', 'VP Default'" font-size="20" font-style="normal" font-weight="400" style="stroke: none; stroke-width: 1; stroke-dasharray: none; stroke-linecap: butt; stroke-dashoffset: 0; stroke-linejoin: miter; stroke-miterlimit: 4; fill: rgb(0,0,0); fill-rule: nonzero; opacity: 1; white-space: pre;" ><tspan x="-99.09" y="6.28" >Empty Level Sensor 2</tspan></text>
</g>
<g transform="matrix(2.9 0 0 2.9 2608.1 217.59)" style=""  >
		<text xml:space="preserve" font-family="'Open Sans', 'VP Default'" font-size="20" font-style="normal" font-weight="400" style="stroke: none; stroke-width: 1; stroke-dasharray: none; stroke-linecap: butt; stroke-dashoffset: 0; stroke-linejoin: miter; stroke-miterlimit: 4; fill: rgb(0,0,0); fill-rule: nonzero; opacity: 1; white-space: pre;" ><tspan x="-85.92" y="6.28" >Full Level Sensor 2</tspan></text>
</g>
<g transform="matrix(2.9 0 0 2.9 184.98 334.34)" style=""  >
		<text xml:space="preserve" font-family="Times New Roman" font-size="10" font-style="normal" font-weight="normal" style="stroke: none; stroke-width: 1; stroke-dasharray: none; stroke-linecap: butt; stroke-dashoffset: 0; stroke-linejoin: miter; stroke-miterlimit: 4; fill: rgb(0,0,0); fill-rule: nonzero; opacity: 1; white-space: pre;" ></text>
</g>
<g transform="matrix(1 0 0 1 1477.55 621.68)" style=""  >
		<text xml:space="preserve" font-family="'Open Sans', sans-serif" font-size="50" font-style="normal" font-weight="normal" style="stroke: none; stroke-width: 1; stroke-dasharray: none; stroke-linecap: butt; stroke-dashoffset: 0; stroke-linejoin: miter; stroke-miterlimit: 4; fill: rgb(0,0,0); fill-rule: nonzero; opacity: 1; white-space: pre;" ><tspan x="-117.92" y="-17.06" style="stroke-width: 1; font-family: 'Open Sans', sans-serif; font-style: normal; font-weight: normal; fill: rgb(0,0,0); ">Full Level</tspan><tspan x="-117.92" y="48.48" style="stroke-width: 1; font-family: 'Open Sans', sans-serif; font-style: normal; font-weight: normal; fill: rgb(0,0,0); ">Sensor 1</tspan></text>
</g>
<g transform="matrix(1 0 0 1 1332.54 204.88)" style=""  >
		<text xml:space="preserve" font-family="'Open Sans', sans-serif" font-size="50" font-style="normal" font-weight="normal" style="stroke: none; stroke-width: 1; stroke-dasharray: none; stroke-linecap: butt; stroke-dashoffset: 0; stroke-linejoin: miter; stroke-miterlimit: 4; fill: rgb(0,0,0); fill-rule: nonzero; opacity: 1; white-space: pre;" ><tspan x="-152.9" y="-17.06" style="stroke-width: 1; font-family: 'Open Sans', sans-serif; font-style: normal; font-weight: normal; fill: rgb(0,0,0); ">Temperature</tspan><tspan x="-152.9" y="48.48" style="stroke-width: 1; font-family: 'Open Sans', sans-serif; font-style: normal; font-weight: normal; fill: rgb(0,0,0); ">Sensor</tspan></text>
</g>
<g transform="matrix(1 0 0 1 279.1 1368.19)" style=""  >
		<text xml:space="preserve" font-family="'Open Sans', sans-serif" font-size="50" font-style="normal" font-weight="normal" style="stroke: none; stroke-width: 1; stroke-dasharray: none; stroke-linecap: butt; stroke-dashoffset: 0; stroke-linejoin: miter; stroke-miterlimit: 4; fill: rgb(0,0,0); fill-rule: nonzero; opacity: 1; white-space: pre;" ><tspan x="-181.14" y="-17.06" style="stroke-width: 1; font-family: 'Open Sans', sans-serif; font-style: normal; font-weight: normal; fill: rgb(0,0,0); ">Empty Level</tspan><tspan x="-181.14" y="48.48" style="stroke-width: 1; font-family: 'Open Sans', sans-serif; font-style: normal; font-weight: normal; fill: rgb(0,0,0); ">Sensor 1</tspan></text>
</g>
</svg>